<svg xmlns="http://www.w3.org/2000/svg" viewBox="0 0 64 64">
  <defs>
    <linearGradient id="grad" x1="0%" y1="0%" x2="100%" y2="100%">
      <stop offset="0%" style="stop-color:#6366f1;stop-opacity:1" />
      <stop offset="100%" style="stop-color:#a855f7;stop-opacity:1" />
    </linearGradient>
  </defs>
  <rect x="0" y="0" width="64" height="64" rx="16" fill="url(#grad)" />
  <path d="M42 16V38.38C40.67 37.5 39.09 37 37.38 37C33.3 37 30 40.3 30 44.38C30 48.46 33.3 51.76 37.38 51.76C41.46 51.76 44.76 48.46 44.76 44.38V22.7L24.85 27.67V46.38C23.52 45.5 21.94 45 20.23 45C16.15 45 12.85 48.3 12.85 52.38C12.85 56.46 16.15 59.76 20.23 59.76C24.31 59.76 27.61 56.46 27.61 52.38V16L42 16Z" fill="white"/>
</svg>
